<svg width="32" height="32" viewBox="0 0 392 383" fill="none" xmlns="http://www.w3.org/2000/svg">
  <rect width="392" height="383" rx="32" fill="#FF444F"/>
  <g filter="url(#a)" fill-rule="evenodd" clip-rule="evenodd" fill="#fff">
    <path d="m157.27 126.006-6.212 20.652 31.025 40.62L151 227.526l5 22.133 48.157-62.325-46.887-61.328Z"/>
    <path d="M201.128 126.006h-34.632l14.475 18.915h20.093c10.645.227 20.782 4.888 28.234 12.982 7.451 8.093 11.623 18.974 11.619 30.305 0 23.566-17.715 42.803-39.853 43.274h-21.76l-14.044 18.171h35.804c31.753-.372 57.225-28.031 56.934-61.823.291-33.768-25.146-61.414-56.876-61.83"/>
  </g>
  <g filter="url(#b)">
    <path d="M142.521 134.778C108.926 87.986-1.121 190.583 25.332 229.669c19.289 28.5 81.848-51.752 79.48-21.297m-54.781 24.17c19.289 28.5 73.087-41.58 70.719-11.125m-41.438 13.242c19.29 28.5 59.573-27.721 57.205 2.735" stroke="#fff" stroke-width="12"/>
  </g>
  <g filter="url(#c)">
    <path d="M252.479 134.778c33.595-46.792 143.642 55.805 117.189 94.891-19.289 28.5-81.848-51.752-79.48-21.297m54.781 24.17c-19.288 28.5-73.087-41.58-70.719-11.125m41.438 13.242c-19.289 28.5-59.573-27.721-57.205 2.735" stroke="#fff" stroke-width="12"/>
  </g>
  <defs>
    <filter id="a" x="147" y="126" width="115" height="131.659" filterUnits="userSpaceOnUse" color-interpolation-filters="sRGB">
      <feFlood flood-opacity="0" result="BackgroundImageFix"/>
      <feColorMatrix in="SourceAlpha" values="0 0 0 0 0 0 0 0 0 0 0 0 0 0 0 0 0 0 127 0" result="hardAlpha"/>
      <feOffset dy="4"/>
      <feGaussianBlur stdDeviation="2"/>
      <feComposite in2="hardAlpha" operator="out"/>
      <feColorMatrix values="0 0 0 0 0 0 0 0 0 0 0 0 0 0 0 0 0 0 0.25 0"/>
      <feBlend in2="BackgroundImageFix" result="effect1_dropShadow_0_1"/>
      <feBlend in="SourceGraphic" in2="effect1_dropShadow_0_1" result="shape"/>
    </filter>
    <filter id="b" x="11.262" y="116.801" width="140.133" height="140.195" filterUnits="userSpaceOnUse" color-interpolation-filters="sRGB">
      <feFlood flood-opacity="0" result="BackgroundImageFix"/>
      <feColorMatrix in="SourceAlpha" values="0 0 0 0 0 0 0 0 0 0 0 0 0 0 0 0 0 0 127 0" result="hardAlpha"/>
      <feOffset dy="4"/>
      <feGaussianBlur stdDeviation="2"/>
      <feComposite in2="hardAlpha" operator="out"/>
      <feColorMatrix values="0 0 0 0 0 0 0 0 0 0 0 0 0 0 0 0 0 0 0.25 0"/>
      <feBlend in2="BackgroundImageFix" result="effect1_dropShadow_0_1"/>
      <feBlend in="SourceGraphic" in2="effect1_dropShadow_0_1" result="shape"/>
    </filter>
    <filter id="c" x="243.605" y="116.801" width="140.133" height="140.195" filterUnits="userSpaceOnUse" color-interpolation-filters="sRGB">
      <feFlood flood-opacity="0" result="BackgroundImageFix"/>
      <feColorMatrix in="SourceAlpha" values="0 0 0 0 0 0 0 0 0 0 0 0 0 0 0 0 0 0 127 0" result="hardAlpha"/>
      <feOffset dy="4"/>
      <feGaussianBlur stdDeviation="2"/>
      <feComposite in2="hardAlpha" operator="out"/>
      <feColorMatrix values="0 0 0 0 0 0 0 0 0 0 0 0 0 0 0 0 0 0 0.25 0"/>
      <feBlend in2="BackgroundImageFix" result="effect1_dropShadow_0_1"/>
      <feBlend in="SourceGraphic" in2="effect1_dropShadow_0_1" result="shape"/>
    </filter>
  </defs>
</svg>
